<?xml version="1.0" encoding="UTF-8"?>
<svg id="Layer_2" data-name="Layer 2" xmlns="http://www.w3.org/2000/svg" viewBox="0 0 476.17 438.27">
  <defs>
    <style>
      .cls-1 {
        fill: #fff;
      }

      .cls-2 {
        fill: #202020;
      }
    </style>
  </defs>
  <g id="Layer_1-2" data-name="Layer 1">
    <g>
      <path class="cls-2" d="M42.43,392.72c3.15-55.04,30.33-155.19,85.42-180.12,25.1-11.36,58.62-1.32,59.95,28.71-14.71,32.92-26.21,67.03-30.79,103.06-13.15,2.37-25.02,4.64-34.95,14.48-8.01,7.93-22.45,37.73-21.03,48.52,1.36,10.33,33.92,13.49,34.92,23.99.23,2.41-1.32,4.69-3.8,6.92h71.17c-7.25-84.99,22.75-189.5,78.94-236,33.37-27.61,55.41-16.92,78.42,14.99,24.34,33.76,31.78,73.14,33.24,114.18-37.72-30.69-75.39-10.83-91.09,30.64-1.99,5.25-6.69,20.35-5.93,25.14,1.6,10.07,41.43,18.86,43.77,26.02.91,2.78.16,4.91-1.53,7.17-3.04,4.07-15.69,11.1-25.62,17.87h125.54c18.37-71.14,19.78-152.27-5.29-217.23-18.54-48.04-59.03-94.15-115.26-88.73-40.48,3.91-50.9,25.57-78.49,46.01-20.55,15.23-27.56-3.69-46.16-12.1-46.55-21.04-95.46-2.03-127.61,34.19C16.95,255.96-5.53,352.52,1.15,438.27h41.94c-1.39-17.21-1.37-33.27-.66-45.55Z"/>
      <path class="cls-2" d="M229.52,112.26c14.13,4.28,29.23-17.52,41.2-25.95,45.8-32.26,97.58-28.51,139.7,7.88,8.69,7.5,26.98,33.59,33.39,36.19,8.18,3.32,20.23,1.71,26.37-4.73,18.29-19.16-9.82-66.04-24.06-81.84-50.55-56.06-140.43-58.46-194.98-6.41-12.76,12.18-51.73,65.74-21.62,74.85Z"/>
      <path class="cls-2" d="M54.71,130.24c19.34-13.85,47.33-25.81,71.1-27.76,14.16-1.16,40.47,2.79,52.24-.84,13.85-4.28,19-24.33,8.44-35.2-3.29-3.39-11.65-6.75-16.28-8.44-44.1-16.02-96.5-5.26-132.22,24.36-14.08,11.67-48.76,47.3-32.85,65.74,16.74,19.4,36.7-8.64,49.58-17.86Z"/>
      <path class="cls-1" d="M339.14,420.4c1.69-2.26,2.43-4.39,1.53-7.17-2.34-7.16-42.17-15.95-43.77-26.02-.76-4.79,3.94-19.89,5.93-25.14,15.7-41.47,53.37-61.33,91.09-30.64-1.45-41.04-8.89-80.42-33.24-114.18-23.01-31.9-45.05-42.6-78.42-14.99-56.2,46.5-86.19,151.01-78.94,236h110.21c9.93-6.77,22.58-13.8,25.62-17.87Z"/>
      <path class="cls-1" d="M135.95,431.35c-1-10.5-33.56-13.66-34.92-23.99-1.42-10.79,13.02-40.59,21.03-48.52,9.94-9.84,21.8-12.1,34.95-14.48,4.58-36.02,16.07-70.13,30.79-103.06-1.33-30.03-34.85-40.07-59.95-28.71-55.09,24.93-82.27,125.08-85.42,180.12-.7,12.28-.72,28.34.66,45.55h89.06c2.48-2.23,4.03-4.51,3.8-6.92Z"/>
    </g>
  </g>
</svg>